<?xml version="1.0" encoding="UTF-8"?>
<svg width="480px" height="562px" viewBox="0 0 480 562" version="1.1" xmlns="http://www.w3.org/2000/svg" xmlns:xlink="http://www.w3.org/1999/xlink">
    <!-- Generator: Sketch 58 (84663) - https://sketch.com -->
    <title>graph</title>
    <desc>Created with Sketch.</desc>
    <defs>
        <linearGradient x1="50%" y1="0%" x2="50%" y2="100%" id="linearGradient-1">
            <stop stop-color="#EBF4FE" offset="0%"></stop>
            <stop stop-color="#EBF4FE" stop-opacity="0" offset="100%"></stop>
        </linearGradient>
    </defs>
    <g id="Client" stroke="none" stroke-width="1" fill="none" fill-rule="evenodd">
        <g id="client-sign-up-copy" transform="translate(-480.000000, -258.000000)">
            <g id="left" transform="translate(480.000000, 0.000000)">
                <g id="graph" transform="translate(-201.000000, 258.000000)">
                    <g id="lines" transform="translate(200.118515, 0.280832)" opacity="0.05" stroke="#204569" stroke-linecap="square">
                        <g id="horizontal" transform="translate(0.881485, 80.219168)">
                            <path d="M0,400.5 L480,400.5" id="Line"></path>
                            <path d="M0,320.5 L480,320.5" id="Line"></path>
                            <path d="M0,240.5 L480,240.5" id="Line"></path>
                            <path d="M0,160.5 L480,160.5" id="Line-Copy-7"></path>
                            <path d="M0,80.5 L480,80.5" id="Line-Copy-16"></path>
                            <path d="M0,0.5 L480,0.5" id="Line-Copy-18"></path>
                        </g>
                        <g id="vertical" transform="translate(79.850992, 0.000000)">
                            <path d="M1.03049255,560.719168 L1.03049255,0.719168241" id="Line-Copy-4"></path>
                            <path d="M81.0304926,560.719168 L81.0304926,0.719168241" id="Line-Copy-8"></path>
                            <path d="M161.030493,560.719168 L161.030493,0.719168241" id="Line-Copy-10"></path>
                            <path d="M241.030493,560.719168 L241.030493,0.719168241" id="Line-Copy-12"></path>
                            <path d="M321.030493,560.719168 L321.030493,0.719168241" id="Line-Copy-14"></path>
                        </g>
                    </g>
                    <g id="main_line" transform="translate(0.216827, 128.459141)" stroke="#3796F6">
                        <polyline id="Path-Copy" stroke-width="32" opacity="0.100000001" points="0.78317328 192.540859 375.283173 192.540859 389.783173 132.540859 414.957341 288.533548 457.19453 0.653198921 490.212385 234.315659 499.783173 192.540859 880.783173 192.540859"></polyline>
                        <polyline id="Path" stroke-width="5" points="0.78317328 192.540859 375.283173 192.540859 389.783173 132.540859 414.957341 288.533548 457.19453 0.653198921 490.212385 234.315659 499.783173 192.540859 880.783173 192.540859"></polyline>
                    </g>
                    <rect id="Rectangle" fill="url(#linearGradient-1)" x="201" y="1" width="480" height="560"></rect>
                </g>
            </g>
        </g>
    </g>
</svg>