<?xml version="1.0" encoding="UTF-8"?>
<svg width="64px" height="64px" viewBox="0 0 64 64" version="1.1" xmlns="http://www.w3.org/2000/svg" xmlns:xlink="http://www.w3.org/1999/xlink">
    <!-- Generator: Sketch 58 (84663) - https://sketch.com -->
    <title>requests_active</title>
    <desc>Created with Sketch.</desc>
    <g id="requests_active" stroke="none" stroke-width="1" fill="none" fill-rule="evenodd">
        <g id="Group" fill="#FFFFFF">
            <path d="M32,16 C40.836556,16 48,23.163444 48,32 C48,40.836556 40.836556,48 32,48 L17,48 C16.4477153,48 16,47.5522847 16,47 L16,32 C16,23.163444 23.163444,16 32,16 Z M32,26 L31.8833789,26.0067277 L31.7707092,26.0264107 C31.3289337,26.1300527 31,26.5266131 31,27 L31,27 L31,31 L27,31 L26.8833789,31.0067277 C26.3860402,31.0644928 26,31.4871642 26,32 L26,32 L26.0067277,32.1166211 C26.0644928,32.6139598 26.4871642,33 27,33 L27,33 L31,33 L31,37 L31.0067277,37.1166211 C31.0644928,37.6139598 31.4871642,38 32,38 L32,38 L32.1166211,37.9932723 C32.6139598,37.9355072 33,37.5128358 33,37 L33,37 L33,33 L37,33 L37.1166211,32.9932723 C37.6139598,32.9355072 38,32.5128358 38,32 L38,32 L37.9932723,31.8833789 C37.9355072,31.3860402 37.5128358,31 37,31 L37,31 L33,31 L33,27 L32.9932723,26.8833789 C32.9355072,26.3860402 32.5128358,26 32,26 L32,26 Z" id="Combined-Shape"></path>
        </g>
    </g>
</svg>