<?xml version="1.0" encoding="UTF-8"?>
<svg width="64px" height="64px" viewBox="0 0 64 64" version="1.1" xmlns="http://www.w3.org/2000/svg" xmlns:xlink="http://www.w3.org/1999/xlink">
    <!-- Generator: Sketch 58 (84663) - https://sketch.com -->
    <title>user_management_active</title>
    <desc>Created with Sketch.</desc>
    <g id="user_management_active" stroke="none" stroke-width="1" fill="none" fill-rule="evenodd">
        <g id="Group" fill="#FFFFFF">
            <path d="M33.9982257,32.0006007 C31.5703415,33.825095 30,36.7291611 30,40 C30,41.4223692 30.2969617,42.7753793 30.8322677,44.0004128 L17,44 C16.4477153,44 16,43.5522847 16,43 L16,38 C16,34.6862915 18.6862915,32 22,32 L33.9982257,32.0006007 Z M28,16 C31.8659932,16 35,19.1340068 35,23 C35,26.8659932 31.8659932,30 28,30 C24.1340068,30 21,26.8659932 21,23 C21,19.1340068 24.1340068,16 28,16 Z" id="Combined-Shape"></path>
            <g id="iconmonstr-gear-1" transform="translate(32.000000, 32.000000)" fill-rule="nonzero">
                <path d="M16,9.07733333 L16,6.92266667 C14.8993333,6.53133333 14.204,6.42133333 13.854,5.57666667 L13.854,5.576 C13.5026667,4.72866667 13.9206667,4.15333333 14.4186667,3.10466667 L12.8953333,1.58133333 C11.8546667,2.076 11.2733333,2.498 10.424,2.146 L10.4233333,2.146 C9.57733333,1.79533333 9.46666667,1.09533333 9.07733333,8.8817842e-16 L6.92266667,8.8817842e-16 C6.53466667,1.09 6.42333333,1.79466667 5.57666667,2.146 L5.576,2.146 C4.72866667,2.498 4.15466667,2.08066667 3.10466667,1.58133333 L1.58133333,3.10466667 C2.078,4.15 2.498,4.72733333 2.146,5.576 C1.79466667,6.42333333 1.09,6.53466667 8.8817842e-16,6.92266667 L8.8817842e-16,9.07733333 C1.088,9.464 1.79466667,9.57666667 2.146,10.4233333 C2.49933333,11.278 2.07,11.8673333 1.58133333,12.8946667 L3.10466667,14.4186667 C4.146,13.9233333 4.72733333,13.502 5.576,13.854 L5.57666667,13.854 C6.42333333,14.2046667 6.534,14.9066667 6.92266667,16 L9.07733333,16 C9.46533333,14.9093333 9.57733333,14.2066667 10.4286667,13.852 L10.4293333,13.852 C11.2706667,13.5026667 11.8426667,13.9193333 12.8946667,14.4193333 L14.418,12.8953333 C13.922,11.8533333 13.5013333,11.2733333 13.8526667,10.4246667 C14.204,9.57733333 14.9113333,9.46466667 16,9.07733333 L16,9.07733333 Z M8,10.6666667 C6.52733333,10.6666667 5.33333333,9.47266667 5.33333333,8 C5.33333333,6.52733333 6.52733333,5.33333333 8,5.33333333 C9.47266667,5.33333333 10.6666667,6.52733333 10.6666667,8 C10.6666667,9.47266667 9.47266667,10.6666667 8,10.6666667 Z" id="Shape"></path>
            </g>
        </g>
    </g>
</svg>