<?xml version="1.0" encoding="UTF-8"?>
<svg width="891px" height="251px" viewBox="0 0 891 251" version="1.1" xmlns="http://www.w3.org/2000/svg" xmlns:xlink="http://www.w3.org/1999/xlink">
    <!-- Generator: Sketch 58 (84663) - https://sketch.com -->
    <title>new logo</title>
    <desc>Created with Sketch.</desc>
    <g id="Admin" stroke="none" stroke-width="1" fill="none" fill-rule="evenodd">
        <g id="logo" transform="translate(-275.000000, -317.000000)">
            <g id="new-logo" transform="translate(274.943260, 317.757812)">
                <text id="Technologies" font-family="Verdana-Bold, Verdana" font-size="78" font-weight="bold" letter-spacing="-1.6" fill="#003470">
                    <tspan x="171.645998" y="233.242188">Technologies</tspan>
                </text>
                <polygon id="Path-6" fill="#1AB0ED" points="764.092463 224.477076 769.775171 230.365584 891.038665 105.056149 885.307792 99.3086361"></polygon>
                <path d="M198.447365,2.83203125 L145.420021,148.242188 L103.427834,148.242188 L66.6044643,47.2661347 L95.0743132,18.2848062 L124.912209,104.980469 L160.068459,2.83203125 L198.447365,2.83203125 Z M253.12674,148.242188 L215.62674,148.242188 L215.62674,2.83203125 L253.12674,2.83203125 L253.12674,148.242188 Z M392.701271,148.242188 L287.52549,148.242188 L287.52549,2.83203125 L392.701271,2.83203125 L392.701271,30.9570312 L324.830177,30.9570312 L324.830177,56.0546875 L387.818459,56.0546875 L387.818459,84.1796875 L324.830177,84.1796875 L324.830177,120.117188 L392.701271,120.117188 L392.701271,148.242188 Z M548.560646,103.710938 C548.560646,110.742223 547.144645,117.024712 544.312599,122.558594 C541.480554,128.092476 537.590619,132.682273 532.642677,136.328125 C526.913482,140.625021 520.614717,143.684887 513.746193,145.507812 C506.877669,147.330738 498.170074,148.242188 487.623146,148.242188 L424.146584,148.242188 L424.146584,2.83203125 L482.070849,2.83415323 C493.035007,2.86598295 501.119422,3.25589719 506.324318,4.00390625 C511.760543,4.78516016 517.147859,6.51040332 522.486427,9.1796875 C528.020309,11.9791807 532.138106,15.7389087 534.839943,20.4589844 C537.541779,25.1790601 538.892677,30.566376 538.892677,36.6210938 C538.892677,43.6523789 537.037227,49.8534888 533.326271,55.2246094 C529.615315,60.59573 524.374482,64.7786309 517.603615,67.7734375 L517.603615,68.5546875 C527.108871,70.4427178 534.644603,74.3489287 540.211037,80.2734375 C545.777471,86.1979463 548.560646,94.0103682 548.560646,103.710938 Z M500.513771,43.9453125 C500.513771,41.5364463 499.911563,39.1276162 498.70713,36.71875 C497.502697,34.3098838 495.370557,32.5195371 492.310646,31.3476562 C489.720173,30.3608092 486.53082,29.7975999 482.7425,29.6580138 L482.105568,29.6386719 C478.036537,29.5410151 472.323704,29.4921875 464.966896,29.4921875 L461.451271,29.4921875 L461.451271,60.2539062 L467.310646,60.2539062 C473.235155,60.2539062 478.280677,60.156251 482.447365,59.9609375 C486.432892,59.7741159 489.614229,59.1703391 491.991462,58.1495901 L492.310646,58.0078125 C495.69608,56.5104092 497.909599,54.5735796 498.951271,52.1972656 C499.992943,49.8209517 500.513771,47.0703281 500.513771,43.9453125 Z M509.693459,103.125 C509.693459,98.5025811 508.798285,94.9381636 507.007912,92.4316406 C505.217538,89.9251177 502.173949,88.0533916 497.877052,86.8164062 C495.064538,86.0039022 491.232075,85.5514062 486.379555,85.4589063 L485.767677,85.4492188 C481.195895,85.3913481 476.444135,85.3591981 471.512283,85.3527681 L461.451271,85.3515625 L461.451271,121.582031 L472.41002,121.574232 C478.761921,121.561033 483.572518,121.53108 486.841896,121.484375 C491.39921,121.419271 495.598387,120.572925 499.439552,118.945312 C503.345822,117.3177 506.031342,115.153008 507.496193,112.451172 C508.961044,109.749335 509.693459,106.640643 509.693459,103.125 Z M681.666115,148.242188 L576.490334,148.242188 L576.490334,2.83203125 L681.666115,2.83203125 L681.666115,30.9570312 L613.795021,30.9570312 L613.795021,56.0546875 L676.783302,56.0546875 L676.783302,84.1796875 L613.795021,84.1796875 L613.795021,120.117188 L681.666115,120.117188 L681.666115,148.242188 Z M842.724709,68.1640625 L842.724709,108.610269 C842.334084,108.610269 828.968709,122.439464 802.628584,150.097856 C796.64789,150.878975 790.677346,151.269531 784.716896,151.269531 C759.977189,151.269531 740.608893,144.547593 726.611427,131.103516 C712.613961,117.659438 705.615334,99.0886602 705.615334,75.390625 C705.615334,52.7993662 712.679065,34.5866577 726.80674,20.7519531 C740.934415,6.91724854 760.628228,0 785.888771,0 C795.459131,0 804.573624,0.862621582 813.232521,2.58789062 C821.891418,4.31315967 831.526739,7.74737012 842.138771,12.890625 L842.138771,46.9726562 L837.939552,46.9726562 L836.039962,45.5660549 C834.413469,44.3737528 832.377404,42.9057775 829.93174,41.1621094 C826.686531,38.8483959 823.552313,36.8536831 820.529006,35.1779208 L819.77549,34.765625 C815.999429,32.6822812 811.588666,30.8919346 806.543068,29.3945312 C801.49747,27.8971279 796.142706,27.1484375 790.478615,27.1484375 C783.837957,27.1484375 777.815881,28.1249902 772.412209,30.078125 C767.008536,32.0312598 762.158324,35.0260215 757.861427,39.0625 C753.759844,42.9687695 750.520944,47.9329126 748.14463,53.9550781 C745.768316,59.9772437 744.580177,66.9270439 744.580177,74.8046875 C744.580177,90.8854971 748.844458,103.190062 757.373146,111.71875 C765.901834,120.247438 778.499365,124.511719 795.166115,124.511719 C796.598414,124.511719 798.177174,124.479167 799.902443,124.414062 C801.627712,124.348958 803.206472,124.251303 804.638771,124.121094 L804.638771,95.6054688 L775.634865,95.6054688 L775.634865,68.1640625 L842.724709,68.1640625 Z" id="VIEBEG" fill="#003470" fill-rule="nonzero"></path>
                <polygon id="Path-5" fill="#1AB0ED" points="0 69.6893962 5.06131541 75.5371094 69.7628375 10.9725731 64.2262954 4.97358717"></polygon>
            </g>
        </g>
    </g>
</svg>