<?xml version="1.0" encoding="UTF-8"?>
<svg width="96px" height="112px" viewBox="0 0 96 112" version="1.1" xmlns="http://www.w3.org/2000/svg" xmlns:xlink="http://www.w3.org/1999/xlink">
    <!-- Generator: sketchtool 58 (101010) - https://sketch.com -->
    <title>5F0676CC-45FE-412B-B8D3-D49025245D5E</title>
    <desc>Created with sketchtool.</desc>
    <defs>
        <circle id="path-1" cx="19.9907842" cy="19.7419363" r="19.7419363"></circle>
        <filter x="-15.2%" y="-15.2%" width="130.4%" height="130.4%" filterUnits="objectBoundingBox" id="filter-2">
            <feOffset dx="0" dy="0" in="SourceAlpha" result="shadowOffsetOuter1"></feOffset>
            <feGaussianBlur stdDeviation="2" in="shadowOffsetOuter1" result="shadowBlurOuter1"></feGaussianBlur>
            <feColorMatrix values="0 0 0 0 0.0855127134   0 0 0 0 0.588937953   0 0 0 0 0.447128026  0 0 0 0.25 0" type="matrix" in="shadowBlurOuter1"></feColorMatrix>
        </filter>
    </defs>
    <g id="Client" stroke="none" stroke-width="1" fill="none" fill-rule="evenodd">
        <g id="reset-password-4" transform="translate(-918.000000, -387.000000)">
            <g id="right" transform="translate(696.000000, 224.000000)">
                <g id="email_sent" transform="translate(0.000000, 140.000000)">
                    <g id="password" transform="translate(214.000000, 27.000000)">
                        <g transform="translate(0.000000, 8.000000)" id="Group">
                            <g>
                                <rect id="Rectangle" opacity="0.200000003" x="0" y="0" width="100" height="100"></rect>
                                <g id="Shape-2" transform="translate(8.333333, 4.166667)">
                                    <g id="lock_ok">
                                        <path d="M41.6666667,54.1666667 C45.1184464,54.1666667 47.9166667,56.9689737 47.9166667,60.4257946 C47.9166667,62.7422549 46.6601222,64.7648049 44.7923941,65.8471412 L44.7916667,71.8609441 C44.7916667,73.5893545 43.3925565,74.990508 41.6666667,74.990508 C39.9407768,74.990508 38.5416667,73.5893545 38.5416667,71.8609441 L38.5416667,71.8609441 L38.5419329,65.8477169 C36.6736568,64.7655222 35.4166667,62.7426657 35.4166667,60.4257946 C35.4166667,56.9689737 38.214887,54.1666667 41.6666667,54.1666667 Z" id="Combined-Shape" fill="#3796F6" fill-rule="nonzero"></path>
                                        <rect id="Rectangle" stroke="#3796F6" stroke-width="1.5" fill-rule="nonzero" x="0.75" y="34.0833333" width="81.8333333" height="61" rx="3"></rect>
                                        <path d="M62.5,20.8333333 C62.5,9.32740105 53.172599,0 41.6666667,0 C30.1607344,0 20.8333333,9.32740105 20.8333333,20.8333333" id="Oval" stroke="#3796F6" stroke-width="1.5"></path>
                                        <path d="M20.8333333,20.8333333 L20.8333333,33.3333333" id="Path" stroke="#3796F6" stroke-width="1.5"></path>
                                        <path d="M62.5,20.8333333 L62.5,33.3333333" id="Path-Copy" stroke="#3796F6" stroke-width="1.5"></path>
                                    </g>
                                </g>
                            </g>
                        </g>
                        <g id="tick" transform="translate(60.000000, 0.000000)" fill-rule="nonzero">
                            <g id="Oval">
                                <use fill="black" fill-opacity="1" filter="url(#filter-2)" xlink:href="#path-1"></use>
                                <use fill="#2CC197" xlink:href="#path-1"></use>
                            </g>
                            <polyline id="Path-8" stroke="#FFFFFF" stroke-width="2" points="13.6036872 19.84997 17.7907427 24.0967752 26.3778812 15.3870974"></polyline>
                        </g>
                    </g>
                </g>
            </g>
        </g>
    </g>
</svg>