<?xml version="1.0" encoding="UTF-8"?>
<svg width="64px" height="64px" viewBox="0 0 64 64" version="1.1" xmlns="http://www.w3.org/2000/svg" xmlns:xlink="http://www.w3.org/1999/xlink">
    <!-- Generator: Sketch 58 (84663) - https://sketch.com -->
    <title>products_active</title>
    <desc>Created with Sketch.</desc>
    <g id="products_active" stroke="none" stroke-width="1" fill="none" fill-rule="evenodd">
        <g id="Group" fill="#FFFFFF">
            <path d="M44.7996624,35.9992476 L46.6432027,37.1520017 C46.7719718,37.2324824 46.8807214,37.3412319 46.9612021,37.4700011 C47.2330045,37.904885 47.1296585,38.4679104 46.7385315,38.7804841 L46.6432027,38.8479983 L32.5299989,47.6687507 C32.2417587,47.8489008 31.8846299,47.8689175 31.5810811,47.7288007 L31.4700011,47.6687507 L17.3567973,38.8479983 C17.2280282,38.7675176 17.1192786,38.6587681 17.0387979,38.5299989 C16.7669955,38.095115 16.8703415,37.5320896 17.2614685,37.2195159 L17.3567973,37.1520017 L19.1996624,35.9992476 L31.4700011,43.6687507 C31.7942713,43.8714196 32.2057287,43.8714196 32.5299989,43.6687507 L44.7996624,35.9992476 Z M44.7996624,29.9992476 L46.6432027,31.1520017 C46.7719718,31.2324824 46.8807214,31.3412319 46.9612021,31.4700011 C47.2330045,31.904885 47.1296585,32.4679104 46.7385315,32.7804841 L46.6432027,32.8479983 L32.5299989,41.6687507 C32.2417587,41.8489008 31.8846299,41.8689175 31.5810811,41.7288007 L31.4700011,41.6687507 L17.3567973,32.8479983 C17.2280282,32.7675176 17.1192786,32.6587681 17.0387979,32.5299989 C16.7669955,32.095115 16.8703415,31.5320896 17.2614685,31.2195159 L17.3567973,31.1520017 L19.1996624,29.9992476 L31.4700011,37.6687507 C31.7942713,37.8714196 32.2057287,37.8714196 32.5299989,37.6687507 L44.7996624,29.9992476 Z M31.4700011,16.3312493 C31.7942713,16.1285804 32.2057287,16.1285804 32.5299989,16.3312493 L32.5299989,16.3312493 L46.6432027,25.1520017 C46.7719718,25.2324824 46.8807214,25.3412319 46.9612021,25.4700011 C47.2539124,25.9383376 47.1115392,26.555288 46.6432027,26.8479983 L46.6432027,26.8479983 L32.5299989,35.6687507 C32.2057287,35.8714196 31.7942713,35.8714196 31.4700011,35.6687507 L31.4700011,35.6687507 L17.3567973,26.8479983 C17.2280282,26.7675176 17.1192786,26.6587681 17.0387979,26.5299989 C16.7460876,26.0616624 16.8884608,25.444712 17.3567973,25.1520017 L17.3567973,25.1520017 Z" id="Combined-Shape"></path>
        </g>
    </g>
</svg>